<?xml version="1.0" standalone="no"?>
<!DOCTYPE svg PUBLIC "-//W3C//DTD SVG 20010904//EN"
 "http://www.w3.org/TR/2001/REC-SVG-20010904/DTD/svg10.dtd">
<svg version="1.0" xmlns="http://www.w3.org/2000/svg"
 width="405.000000pt" height="350.000000pt" viewBox="0 0 405.000000 350.000000"
 preserveAspectRatio="xMidYMid meet">

<g transform="translate(0.000000,350.000000) scale(0.100000,-0.100000)"
fill="#8b8dfa" stroke="none">
<path d="M2275 3450 c-138 -49 -233 -103 -392 -222 -146 -109 -281 -264 -351
-404 l-31 -61 -88 -18 c-90 -17 -246 -72 -345 -121 l-54 -26 -47 31 c-122 83
-392 185 -566 215 -52 9 -148 16 -212 16 -102 0 -120 -2 -128 -17 -22 -42 -35
-147 -34 -283 1 -354 97 -703 279 -1007 45 -75 78 -114 173 -204 l118 -111 6
-58 c10 -94 54 -198 107 -250 69 -69 160 -93 420 -108 l125 -7 -3 -43 c-7 -86
67 -254 139 -318 57 -51 121 -35 189 46 46 54 50 83 20 147 l-19 42 33 21 c19
11 36 20 39 20 3 0 15 -16 26 -36 18 -30 26 -35 46 -30 15 4 25 2 25 -4 0 -19
-32 -74 -70 -120 -66 -80 -77 -126 -40 -172 32 -42 85 -57 175 -51 97 6 116
13 146 53 13 18 62 74 110 124 47 50 97 108 113 129 37 50 52 48 60 -10 26
-178 151 -490 224 -557 35 -31 72 -22 377 93 199 75 239 92 361 151 170 82
314 182 449 312 234 225 319 380 351 641 14 110 15 147 5 222 -13 96 -47 207
-91 295 -16 31 -31 78 -35 105 -5 28 -14 67 -21 89 -8 21 -14 49 -14 62 0 21
4 23 25 18 17 -4 25 -2 25 7 0 19 -32 69 -65 102 -26 25 -27 28 -11 45 23 27
20 32 -20 32 -45 0 -155 52 -188 88 -222 249 -303 306 -531 369 -89 25 -117
28 -250 28 -82 0 -175 -3 -206 -7 -46 -7 -58 -5 -63 7 -3 9 -17 91 -31 183
-30 198 -88 446 -120 520 -22 48 -26 52 -57 51 -18 0 -55 -9 -83 -19z m126
-133 c90 -300 108 -551 56 -772 -16 -66 -40 -151 -53 -188 -27 -77 -30 -101
-9 -73 15 20 15 20 15 0 0 -11 6 -28 13 -39 8 -11 17 -28 20 -38 6 -16 3 -16
-24 3 -16 12 -33 20 -36 17 -3 -4 40 -66 95 -140 56 -73 113 -159 127 -191 24
-54 25 -63 14 -115 -6 -31 -19 -77 -29 -103 -23 -62 -119 -213 -188 -297 -64
-78 -130 -173 -207 -302 -71 -117 -104 -152 -180 -192 l-60 -32 -535 0 -535 0
-50 24 c-152 75 -195 176 -195 459 0 113 -3 171 -10 167 -5 -3 -10 -30 -10
-58 l-1 -52 -24 28 c-18 20 -25 40 -25 69 0 38 2 40 25 36 14 -3 25 -4 25 -3
0 1 -31 23 -69 48 -95 63 -252 216 -307 298 -92 139 -146 313 -174 558 -14
119 -9 335 9 371 20 41 91 39 205 -6 50 -20 100 -46 111 -57 l20 -21 -21 17
c-11 9 -35 20 -52 23 -31 6 -32 5 -32 -25 0 -18 -7 -46 -16 -63 -9 -17 -11
-27 -4 -23 6 4 -4 -13 -23 -38 -42 -54 -62 -141 -54 -229 3 -35 10 -64 15 -66
5 -1 7 -33 4 -72 -4 -65 -3 -70 15 -70 12 0 23 -8 26 -17 4 -10 17 -36 29 -58
72 -125 96 -148 159 -147 36 1 99 28 99 43 0 4 9 5 20 2 12 -3 20 0 20 6 0 7
4 10 8 7 5 -3 16 28 26 68 20 85 70 190 121 252 l37 44 -40 74 c-37 69 -38 73
-21 84 11 7 19 17 19 22 0 15 36 48 57 52 10 2 17 11 17 20 -1 15 1 14 27 -1
16 -10 49 -37 74 -60 l44 -41 83 44 c108 58 215 97 382 137 90 21 136 37 136
45 0 14 135 220 151 229 5 4 9 -1 9 -9 0 -8 6 -21 14 -29 8 -8 22 -39 32 -68
21 -68 31 -79 43 -48 8 19 9 15 5 -21 -3 -25 -7 -55 -10 -67 -3 -19 3 -24 53
-38 32 -9 84 -30 116 -46 56 -28 169 -106 175 -121 7 -15 32 -8 33 10 1 16 2
16 6 0 6 -23 14 -23 41 2 12 11 25 20 29 20 4 0 18 15 30 34 17 26 23 55 28
146 7 95 6 112 -6 106 -8 -4 4 9 26 28 l40 36 -26 49 c-16 30 -21 47 -12 44
16 -6 16 5 2 139 -8 83 -17 118 -45 178 -20 41 -35 77 -35 79 0 4 79 39 91 40
3 1 21 -54 41 -122z m-260 -174 l-54 -38 39 -11 c72 -21 139 -61 187 -113 26
-27 47 -54 47 -59 0 -5 -41 -42 -91 -82 l-91 -74 44 -25 43 -26 -66 -5 c-74
-6 -70 1 -45 -94 9 -33 15 -61 13 -62 -1 -2 -68 41 -147 95 -142 95 -145 99
-148 137 -6 63 17 145 68 245 51 101 64 113 155 135 95 23 105 18 46 -23z
m-1771 -457 c0 -2 -7 -7 -16 -10 -8 -3 -12 -2 -9 4 6 10 25 14 25 6z m133 -22
c55 -19 188 -151 236 -235 27 -47 29 -55 15 -70 -8 -9 -40 -61 -72 -116 -83
-147 -136 -233 -143 -233 -3 0 -12 26 -18 58 -20 89 -22 91 -40 50 -27 -64
-38 -43 -32 64 l3 46 -39 -13 c-22 -8 -68 -17 -103 -21 l-63 -7 7 59 c8 75 61
187 126 269 55 71 57 66 -42 80 -27 4 -48 11 -48 15 0 12 120 70 145 70 12 0
42 -7 68 -16z m2544 -19 c145 -29 226 -66 336 -155 41 -33 105 -96 142 -139
62 -73 71 -81 140 -105 40 -14 78 -26 83 -26 6 0 14 -5 18 -11 4 -7 -16 -10
-65 -7 -83 4 -94 -6 -18 -16 65 -9 125 -35 156 -70 30 -32 23 -41 -21 -28 -48
15 -119 22 -112 11 3 -5 11 -9 19 -9 8 0 33 -18 55 -39 38 -36 41 -42 35 -75
-6 -28 -4 -36 8 -36 8 0 18 -7 21 -15 3 -10 -12 -4 -39 15 -25 17 -62 38 -82
46 l-37 16 27 -35 c29 -39 46 -99 47 -167 l0 -44 -40 39 c-49 48 -51 40 -5
-21 19 -25 35 -50 35 -55 0 -5 7 -9 15 -9 18 0 28 51 23 123 -3 60 3 63 29 14
15 -30 15 -31 -1 -18 -16 13 -16 10 -11 -44 3 -32 11 -66 19 -74 24 -28 65
-125 77 -180 11 -54 7 -317 -6 -356 -6 -19 -6 -19 8 -3 8 10 17 16 20 13 4 -3
5 -2 3 1 -2 3 3 22 11 42 9 20 19 87 24 147 l8 110 -4 -130 c-7 -251 -79 -417
-271 -624 -65 -70 -242 -226 -249 -219 -2 2 0 19 5 38 4 19 8 27 9 18 2 -27
12 -23 83 36 175 145 322 337 352 458 9 38 -20 38 -37 1 -6 -16 -14 -30 -18
-33 -3 -3 -9 -17 -13 -33 -3 -15 -13 -27 -22 -27 -8 0 -13 -4 -10 -9 5 -8 -40
-72 -67 -95 -8 -6 -42 -45 -78 -86 -87 -102 -135 -150 -148 -150 -6 0 -11 -5
-11 -11 0 -5 -5 -7 -10 -4 -6 4 -17 2 -24 -4 -10 -8 -17 -7 -26 4 -19 22 -35
18 -36 -10 -2 -22 1 -24 25 -19 21 4 19 1 -14 -19 -22 -13 -41 -23 -43 -22 -1
1 3 16 9 34 16 46 4 143 -25 208 -33 71 -53 71 -152 -2 -21 -15 -21 -14 3 32
13 26 23 59 21 73 -3 24 -6 25 -58 22 -30 -2 -85 -13 -122 -26 -66 -22 -83
-21 -54 3 19 16 136 194 136 208 0 17 -37 23 -143 23 -113 0 -232 -21 -298
-53 l-45 -22 9 26 c12 31 4 59 -18 59 -22 0 -88 -69 -113 -120 -25 -52 -26
-48 -10 70 6 48 8 95 5 105 -7 16 -9 16 -35 0 -15 -10 -40 -29 -56 -44 -29
-26 -29 -26 3 15 33 42 65 129 55 146 -3 5 -15 1 -27 -9 -47 -41 52 83 108
135 111 103 245 180 580 332 177 81 251 124 283 165 31 39 27 54 -5 23 -16
-14 -39 -31 -53 -39 -36 -19 -380 -157 -380 -153 0 2 23 15 50 29 60 30 64 45
13 45 -48 0 -113 18 -113 31 0 5 -8 13 -17 16 -47 18 -164 97 -213 145 -78 76
-88 91 -95 143 -8 52 -15 52 -26 -2 -7 -31 -8 -28 -4 17 3 30 5 144 5 252 0
227 -7 211 105 235 79 16 207 8 362 -22z m-480 -547 c-3 -8 -6 -5 -6 6 -1 11
2 17 5 13 3 -3 4 -12 1 -19z m4 -35 c13 -16 12 -17 -3 -4 -10 7 -18 15 -18 17
0 8 8 3 21 -13z m-1961 -7 c0 -2 -8 -10 -17 -17 -16 -13 -17 -12 -4 4 13 16
21 21 21 13z m3240 -266 c6 -11 8 -20 6 -20 -3 0 -10 9 -16 20 -6 11 -8 20 -6
20 3 0 10 -9 16 -20z m-911 -54 c-10 -9 -69 -36 -69 -32 0 7 52 35 64 36 5 0
7 -2 5 -4z m961 -37 c12 -23 20 -43 18 -45 -3 -2 -14 17 -26 41 -27 56 -20 60
8 4z m59 -189 c0 -14 -9 7 -19 45 -10 39 -19 75 -18 80 1 21 37 -101 37 -125z
m-1469 -400 c-17 -123 -18 -150 -8 -144 6 4 8 -2 3 -17 -3 -13 8 0 24 30 43
76 78 119 102 126 11 4 23 5 25 2 4 -4 -10 -45 -42 -122 -4 -11 6 -4 24 16 38
44 111 73 232 94 124 22 250 18 250 -7 0 -6 -38 -66 -85 -134 -47 -68 -84
-124 -81 -124 2 0 24 9 48 20 42 18 171 50 204 50 25 0 15 -36 -35 -134 l-50
-95 60 58 c66 65 119 97 142 88 23 -9 47 -99 47 -174 0 -69 -15 -110 -58 -155
-37 -40 -22 -35 60 21 40 28 74 48 77 46 2 -3 -4 -23 -14 -45 -21 -46 -60 -72
-240 -162 -124 -62 -379 -166 -440 -180 -22 -5 -79 -27 -128 -50 l-87 -41 -30
28 c-36 34 -99 153 -138 261 -42 115 -65 273 -60 408 7 155 43 249 134 343 35
37 66 65 68 62 3 -3 1 -34 -4 -69z m-441 -244 c-2 -2 -15 -9 -29 -15 -24 -11
-24 -11 -6 3 16 13 49 24 35 12z m-244 -47 c4 -6 2 -30 -5 -53 -9 -34 -19 -47
-47 -60 -33 -16 -37 -16 -54 0 -11 9 -19 25 -19 36 0 22 -8 22 -34 3 -42 -31
-76 -14 -76 37 0 18 -4 20 -40 14 -41 -6 -50 0 -28 22 16 16 294 17 303 1z
m96 -10 c-13 -5 -22 -11 -19 -14 4 -4 37 -12 60 -14 13 -2 38 -32 38 -46 0
-23 -48 -48 -107 -56 -30 -4 -63 -15 -74 -25 -27 -24 -24 -13 20 82 38 81 41
84 73 83 31 0 32 -1 9 -10z m-565 -77 c27 -13 31 -34 10 -51 -8 -7 -17 -24
-21 -39 l-8 -27 -7 25 c-5 14 -8 57 -7 95 0 39 2 56 4 39 3 -21 12 -35 29 -42z"/>
<path d="M2179 1861 c-47 -56 -104 -167 -123 -241 -16 -63 -9 -91 10 -39 15
40 18 29 5 -21 -14 -54 -23 -156 -13 -145 5 6 17 39 27 75 33 123 82 205 167
285 60 55 78 78 78 99 0 36 -25 43 -60 17 -31 -23 -52 -29 -32 -9 16 16 15 25
-4 25 -8 0 -33 -21 -55 -46z"/>
<path d="M982 1323 c-29 -6 -38 -27 -24 -58 11 -23 11 -23 59 -8 30 10 90 16
158 17 122 1 226 -23 297 -70 21 -13 35 -18 32 -11 -8 23 -117 87 -184 108
-48 16 -97 22 -190 24 -69 2 -135 1 -148 -2z"/>
<path d="M1933 1049 c-18 -12 -33 -29 -33 -39 0 -22 63 -54 91 -45 24 8 54 67
46 89 -9 23 -65 20 -104 -5z"/>
</g>
</svg>
